# 3ds Max Wavefront OBJ Exporter v0.97b - (c)2007 guruware
# File Created: 05.02.2015 15:12:38

#
# object Plane14
#

v  -0.393788 -0.087942 0.019735
v  -0.233492 -0.087942 0.019735
v  -0.233492 0.129949 0.019735
v  -0.393788 0.129949 0.019735
v  -0.401996 0.141619 0.000444
v  -0.401996 -0.099611 0.000445
v  -0.225283 -0.099611 0.000445
v  -0.225283 0.141619 0.000444
v  0.374322 -0.092030 0.019826
v  0.592232 -0.092030 0.019826
v  0.592232 0.129959 0.019826
v  0.374322 0.129959 0.019826
v  0.362766 0.141515 0.000577
v  0.362766 -0.103586 0.000577
v  0.603788 -0.103586 0.000577
v  0.603788 0.141515 0.000577
v  -0.211607 0.165019 0.019918
v  0.006329 0.165019 0.019918
v  0.006329 0.488561 0.019918
v  -0.211607 0.488561 0.019918
v  -0.223030 0.504032 0.000721
v  -0.223030 0.149548 0.000721
v  0.017751 0.149548 0.000721
v  0.017751 0.504032 0.000721
v  -0.485141 0.161774 0.019826
v  -0.237949 0.161774 0.019826
v  -0.237949 0.429895 0.019826
v  -0.485141 0.429895 0.019826
v  -0.496698 0.441452 0.000577
v  -0.496698 0.150218 0.000577
v  -0.226393 0.150218 0.000577
v  -0.226393 0.441452 0.000577
v  0.038872 0.301960 0.019895
v  0.289699 0.301960 0.019895
v  0.289699 0.581389 0.019895
v  0.038872 0.581389 0.019895
v  0.027415 0.595847 0.000685
v  0.027415 0.287502 0.000685
v  0.301157 0.287502 0.000685
v  0.301157 0.595847 0.000685
v  -0.476235 -0.551059 0.019826
v  -0.238671 -0.551059 0.019826
v  -0.238671 -0.333149 0.019826
v  -0.476235 -0.333149 0.019826
v  -0.487791 -0.321593 0.000577
v  -0.487791 -0.562615 0.000577
v  -0.227115 -0.562615 0.000577
v  -0.227115 -0.321593 0.000577
v  -0.206975 -0.490576 0.019742
v  0.010917 -0.490576 0.019742
v  0.010917 -0.331093 0.019742
v  -0.206975 -0.331093 0.019742
v  -0.218637 -0.322655 0.000454
v  -0.218637 -0.499014 0.000454
v  0.022579 -0.499014 0.000454
v  0.022579 -0.322655 0.000454
v  -0.592166 -0.302818 0.019775
v  -0.366293 -0.302818 0.019775
v  -0.366293 -0.121062 0.019775
v  -0.592166 -0.121062 0.019775
v  -0.603788 -0.111433 0.000502
v  -0.603788 -0.312447 0.000502
v  -0.354671 -0.312447 0.000502
v  -0.354671 -0.111433 0.000502
v  -0.329541 -0.302818 0.019775
v  -0.111643 -0.302818 0.019775
v  -0.111643 -0.121062 0.019775
v  -0.329541 -0.121062 0.019775
v  -0.341163 -0.111433 0.000502
v  -0.341163 -0.312447 0.000502
v  -0.100021 -0.312447 0.000502
v  -0.100021 -0.111433 0.000502
v  -0.086183 -0.302800 0.019599
v  0.017854 -0.302800 0.019599
v  0.017854 -0.121080 0.019599
v  -0.086183 -0.121080 0.019599
v  -0.091712 -0.111246 0.000240
v  -0.091712 -0.312634 0.000240
v  0.023384 -0.312634 0.000240
v  0.023384 -0.111246 0.000240
v  0.044975 -0.393360 0.019814
v  0.285643 -0.393360 0.019814
v  0.285643 -0.211593 0.019814
v  0.044975 -0.211593 0.019814
v  0.031798 -0.202018 0.000564
v  0.031798 -0.402935 0.000564
v  0.298820 -0.402935 0.000564
v  0.298820 -0.202018 0.000564
v  0.044399 -0.182174 0.019753
v  0.286260 -0.182174 0.019753
v  0.286260 -0.041435 0.019753
v  0.044399 -0.041435 0.019753
v  0.031842 -0.034057 0.000480
v  0.031842 -0.189553 0.000480
v  0.298817 -0.189553 0.000480
v  0.298817 -0.034057 0.000480
v  -0.208136 -0.091686 0.019749
v  -0.046562 -0.091686 0.019749
v  -0.046562 0.129122 0.019749
v  -0.208136 0.129122 0.019749
v  -0.216680 0.140935 0.000465
v  -0.216680 -0.103499 0.000465
v  -0.038018 -0.103499 0.000465
v  -0.038018 0.140935 0.000465
v  0.137102 0.073985 0.019755
v  0.345857 0.073985 0.019755
v  0.345857 0.266119 0.019755
v  0.137102 0.266119 0.019755
v  0.125957 0.275504 0.000471
v  0.125957 0.064600 0.000471
v  0.357001 0.064600 0.000471
v  0.357001 0.275504 0.000471
v  0.032667 0.155085 0.019457
v  0.106525 0.155085 0.019457
v  0.106525 0.267454 0.019457
v  0.032667 0.267454 0.019457
v  0.028663 0.274366 0.000017
v  0.028663 0.148174 0.000017
v  0.110530 0.148174 0.000017
v  0.110530 0.274366 0.000017
v  0.309182 -0.094596 0.019441
v  0.355469 -0.094596 0.019441
v  0.355469 0.051541 0.019441
v  0.309182 0.051541 0.019441
v  0.306704 0.059572 0.000001
v  0.306704 -0.102627 0.000001
v  0.357947 -0.102627 0.000001
v  0.357947 0.059572 0.000001
v  0.371127 0.161156 0.019693
v  0.499743 0.161156 0.019693
v  0.499743 0.394106 0.019693
v  0.371127 0.394106 0.019693
v  0.364344 0.405823 0.000386
v  0.364344 0.149439 0.000386
v  0.506526 0.149439 0.000386
v  0.506526 0.405823 0.000386
v  0.310852 0.293283 0.019539
v  0.351837 0.293283 0.019539
v  0.351837 0.469243 0.019539
v  0.310852 0.469243 0.019539
v  0.306938 0.478856 0.000154
v  0.306938 0.283669 0.000154
v  0.355751 0.283669 0.000154
v  0.355751 0.478856 0.000154
v  0.311022 -0.301278 0.019544
v  0.400172 -0.301278 0.019544
v  0.400172 -0.121491 0.019544
v  0.311022 -0.121491 0.019544
v  0.307114 -0.111707 0.000163
v  0.307114 -0.311062 0.000163
v  0.404081 -0.311062 0.000163
v  0.404081 -0.111707 0.000163
v  0.318244 -0.519869 0.019727
v  0.509585 -0.519869 0.019727
v  0.509585 -0.332137 0.019727
v  0.318244 -0.332137 0.019727
v  0.308286 -0.322554 0.000428
v  0.308286 -0.529452 0.000428
v  0.519543 -0.529452 0.000428
v  0.519543 -0.322554 0.000428
v  0.373543 -0.592527 0.019440
v  0.502950 -0.592527 0.019440
v  0.502950 -0.539142 0.019440
v  0.373543 -0.539142 0.019440
v  0.366435 -0.535822 -0.000007
v  0.366435 -0.595847 -0.000007
v  0.510058 -0.595847 -0.000007
v  0.510058 -0.535822 -0.000007
v  -0.023377 -0.019137 0.019580
v  0.113189 -0.019137 0.019580
v  0.113189 0.130200 0.019580
v  -0.023377 0.130200 0.019580
v  -0.030745 0.137293 0.000202
v  -0.030745 -0.026231 0.000202
v  0.120556 -0.026231 0.000202
v  0.120556 0.137293 0.000202
v  0.134590 -0.021791 0.019483
v  0.290908 -0.021791 0.019483
v  0.290908 0.053423 0.019483
v  0.134590 0.053423 0.019483
v  0.126927 0.057475 0.000059
v  0.126927 -0.025843 0.000059
v  0.298570 -0.025843 0.000059
v  0.298570 0.057475 0.000059
v  -0.030405 -0.099759 0.019316
v  0.021114 -0.099759 0.019316
v  0.021114 -0.037337 0.019316
v  -0.030405 -0.037337 0.019316
v  -0.033848 -0.033210 -0.000206
v  -0.033848 -0.103886 -0.000206
v  0.024556 -0.103886 -0.000206
v  0.024556 -0.033210 -0.000206
# 192 vertices

vn -0.453738 -0.389684 0.801416
vn 0.453737 -0.389684 0.801417
vn 0.453737 0.389684 0.801417
vn -0.453738 0.389684 0.801417
vn -0.551189 0.589093 0.590898
vn -0.551190 -0.589093 0.590897
vn 0.551190 -0.589092 0.590898
vn 0.551189 0.589092 0.590898
vn -0.395473 -0.395473 0.828977
vn 0.395472 -0.395473 0.828977
vn 0.395473 0.395473 0.828977
vn -0.395473 0.395472 0.828977
vn -0.539021 0.539022 0.647234
vn -0.539022 -0.539022 0.647233
vn 0.539022 -0.539021 0.647234
vn 0.539021 0.539021 0.647234
vn -0.403655 -0.336854 0.850642
vn 0.403655 -0.336854 0.850642
vn 0.403654 0.336855 0.850642
vn -0.403655 0.336855 0.850642
vn -0.484678 0.517333 0.705304
vn -0.484677 -0.517333 0.705304
vn 0.484677 -0.517333 0.705305
vn 0.484678 0.517333 0.705304
vn -0.395472 -0.395472 0.828977
vn 0.395472 -0.395472 0.828977
vn 0.395473 0.395472 0.828977
vn -0.395472 0.395472 0.828977
vn -0.539021 0.539021 0.647234
vn -0.539021 -0.539021 0.647234
vn 0.539021 -0.539021 0.647234
vn -0.401456 -0.350986 0.845956
vn 0.401456 -0.350986 0.845956
vn 0.401456 0.350986 0.845956
vn -0.401456 0.350986 0.845956
vn -0.498213 0.523528 0.691160
vn -0.498213 -0.523528 0.691160
vn 0.498213 -0.523528 0.691160
vn 0.498213 0.523528 0.691160
vn -0.395473 -0.395472 0.828977
vn 0.395473 -0.395472 0.828977
vn 0.395472 0.395473 0.828977
vn -0.395472 0.395473 0.828977
vn -0.539022 0.539021 0.647234
vn -0.539020 -0.539021 0.647235
vn 0.539020 -0.539021 0.647235
vn -0.390026 -0.449535 0.803616
vn 0.390026 -0.449535 0.803615
vn 0.390026 0.449535 0.803616
vn -0.390026 0.449535 0.803616
vn -0.585587 0.550593 0.594924
vn -0.585587 -0.550593 0.594924
vn 0.585587 -0.550593 0.594924
vn 0.585587 0.550594 0.594924
vn -0.391943 -0.428186 0.814271
vn 0.391943 -0.428187 0.814271
vn 0.391943 0.428186 0.814271
vn -0.391943 0.428186 0.814271
vn -0.567540 0.546906 0.615461
vn -0.567540 -0.546907 0.615460
vn 0.567540 -0.546907 0.615460
vn 0.567540 0.546907 0.615461
vn -0.391943 -0.428187 0.814271
vn -0.500531 -0.417112 0.758608
vn 0.500532 -0.417112 0.758608
vn 0.500531 0.417112 0.758608
vn -0.500531 0.417112 0.758608
vn -0.585669 0.642767 0.493803
vn -0.585669 -0.642767 0.493803
vn 0.585669 -0.642768 0.493803
vn 0.585669 0.642768 0.493803
vn -0.367784 -0.431706 0.823629
vn 0.367784 -0.431706 0.823629
vn 0.367784 0.431705 0.823629
vn -0.367784 0.431705 0.823629
vn -0.558664 0.523881 0.642995
vn -0.558665 -0.523882 0.642994
vn 0.558665 -0.523881 0.642994
vn 0.558664 0.523881 0.642995
vn -0.375176 -0.470702 0.798550
vn 0.375176 -0.470702 0.798550
vn 0.375176 0.470702 0.798551
vn -0.375176 0.470702 0.798551
vn -0.595816 0.539642 0.594802
vn -0.595816 -0.539643 0.594801
vn 0.595816 -0.539642 0.594801
vn 0.595816 0.539642 0.594802
vn -0.447862 -0.387740 0.805653
vn 0.447863 -0.387741 0.805653
vn 0.447863 0.387741 0.805652
vn -0.447862 0.387741 0.805653
vn -0.547924 0.583001 0.599907
vn -0.547923 -0.583001 0.599908
vn 0.547924 -0.583001 0.599908
vn 0.547924 0.583002 0.599907
vn -0.399379 -0.431707 0.808780
vn 0.399379 -0.431707 0.808780
vn 0.399379 0.431707 0.808780
vn -0.399379 0.431707 0.808780
vn -0.573995 0.555190 0.601908
vn -0.573995 -0.555191 0.601908
vn 0.573995 -0.555190 0.601908
vn 0.573995 0.555191 0.601908
vn -0.523336 -0.465570 0.713697
vn 0.523336 -0.465570 0.713697
vn 0.523336 0.465569 0.713698
vn -0.523336 0.465569 0.713698
vn -0.632698 0.679290 0.371830
vn -0.632699 -0.679290 0.371830
vn 0.632699 -0.679290 0.371830
vn 0.632698 0.679290 0.371830
vn -0.554731 -0.445204 0.702899
vn 0.554731 -0.445204 0.702899
vn 0.554731 0.445204 0.702899
vn -0.554731 0.445204 0.702899
vn -0.611519 0.700719 0.367474
vn -0.611519 -0.700719 0.367474
vn 0.611519 -0.700719 0.367474
vn 0.611519 0.700720 0.367474
vn -0.480408 -0.387788 0.786657
vn 0.480409 -0.387788 0.786656
vn 0.480409 0.387788 0.786656
vn -0.480408 0.387788 0.786656
vn -0.554009 0.611029 0.565436
vn -0.554009 -0.611029 0.565436
vn 0.554009 -0.611029 0.565436
vn 0.554009 0.611029 0.565436
vn -0.531078 -0.419774 0.736034
vn 0.531077 -0.419774 0.736034
vn 0.531078 0.419774 0.736035
vn -0.531078 0.419774 0.736035
vn -0.589188 0.670198 0.451322
vn -0.589189 -0.670198 0.451322
vn 0.589189 -0.670198 0.451322
vn 0.589188 0.670198 0.451322
vn -0.531580 -0.417002 0.737246
vn 0.531580 -0.417002 0.737246
vn 0.531580 0.417003 0.737246
vn -0.531580 0.417003 0.737246
vn -0.586469 0.669324 0.456136
vn -0.586469 -0.669324 0.456136
vn 0.586469 -0.669324 0.456136
vn 0.586469 0.669324 0.456136
vn -0.419427 -0.426419 0.801404
vn 0.419427 -0.426419 0.801404
vn 0.419427 0.426419 0.801404
vn -0.419427 0.426419 0.801404
vn -0.577011 0.572818 0.582184
vn -0.577012 -0.572818 0.582183
vn 0.577011 -0.572817 0.582184
vn 0.577012 0.572817 0.582184
vn -0.461456 -0.536635 0.706457
vn 0.461456 -0.536635 0.706457
vn 0.461456 0.536635 0.706457
vn -0.461456 0.536635 0.706457
vn -0.689957 0.628287 0.359465
vn -0.689957 -0.628287 0.359466
vn 0.689957 -0.628287 0.359466
vn 0.689957 0.628287 0.359465
vn -0.461458 -0.466834 0.754402
vn 0.461459 -0.466834 0.754402
vn 0.461459 0.466834 0.754402
vn -0.461458 0.466835 0.754402
vn -0.627269 0.623452 0.466736
vn -0.627268 -0.623452 0.466736
vn 0.627268 -0.623452 0.466735
vn 0.627268 0.623452 0.466735
vn -0.452585 -0.524061 0.721476
vn 0.452585 -0.524061 0.721476
vn 0.452585 0.524061 0.721476
vn -0.452585 0.524061 0.721476
vn -0.676533 0.620650 0.396355
vn -0.676533 -0.620650 0.396354
vn 0.676533 -0.620650 0.396355
vn 0.676532 0.620650 0.396355
vn -0.527897 -0.514275 0.675903
vn 0.527897 -0.514276 0.675904
vn 0.527897 0.514275 0.675904
vn -0.527897 0.514275 0.675903
vn -0.675612 0.688129 0.264625
vn -0.675612 -0.688129 0.264624
vn 0.675612 -0.688129 0.264625
vn 0.675612 0.688129 0.264625
# 183 vertex normals

vt 0.490886 0.780364 0.000000
vt 0.617264 0.780364 0.000000
vt 0.617264 0.962029 0.000000
vt 0.490886 0.962029 0.000000
vt 0.470485 0.984444 0.000000
vt 0.470485 0.757949 0.000000
vt 0.637664 0.757949 0.000000
vt 0.637665 0.984444 0.000000
vt 0.257449 0.490967 0.000000
vt 0.257449 0.309284 0.000000
vt 0.439131 0.309284 0.000000
vt 0.439131 0.490967 0.000000
vt 0.461445 0.513281 0.000000
vt 0.235134 0.513281 0.000000
vt 0.235134 0.286970 0.000000
vt 0.461445 0.286970 0.000000
vt 0.022193 0.024662 0.000000
vt 0.203902 0.024662 0.000000
vt 0.203902 0.271353 0.000000
vt 0.022193 0.271353 0.000000
vt 0.000000 0.296015 0.000000
vt 0.000000 0.000000 0.000000
vt 0.226095 0.000000 0.000000
vt 0.226095 0.296014 0.000000
vt 0.492639 0.022314 0.000000
vt 0.674321 0.022314 0.000000
vt 0.674321 0.203997 0.000000
vt 0.492639 0.203997 0.000000
vt 0.470325 0.226311 0.000000
vt 0.470325 0.000000 0.000000
vt 0.696635 0.000000 0.000000
vt 0.696635 0.226311 0.000000
vt 0.257359 0.024043 0.000000
vt 0.439061 0.024043 0.000000
vt 0.439061 0.253887 0.000000
vt 0.257359 0.253887 0.000000
vt 0.235134 0.277930 0.000000
vt 0.235134 0.000000 0.000000
vt 0.461285 0.000000 0.000000
vt 0.461285 0.277930 0.000000
vt 0.257449 0.726317 0.000000
vt 0.257449 0.544635 0.000000
vt 0.439131 0.544635 0.000000
vt 0.439131 0.726317 0.000000
vt 0.461445 0.748631 0.000000
vt 0.235134 0.748631 0.000000
vt 0.235134 0.522320 0.000000
vt 0.461445 0.522320 0.000000
vt 0.491014 0.726501 0.000000
vt 0.491014 0.544835 0.000000
vt 0.621173 0.544835 0.000000
vt 0.621173 0.726501 0.000000
vt 0.641702 0.748909 0.000000
vt 0.470485 0.748909 0.000000
vt 0.470485 0.522426 0.000000
vt 0.641702 0.522426 0.000000
vt 0.726876 0.204044 0.000000
vt 0.726876 0.022373 0.000000
vt 0.876683 0.022373 0.000000
vt 0.876683 0.204044 0.000000
vt 0.897885 0.226417 0.000000
vt 0.705675 0.226417 0.000000
vt 0.705675 0.000000 0.000000
vt 0.897885 0.000000 0.000000
vt 0.491686 0.491014 0.000000
vt 0.491686 0.309342 0.000000
vt 0.641493 0.309342 0.000000
vt 0.641493 0.491014 0.000000
vt 0.662695 0.513387 0.000000
vt 0.470485 0.513387 0.000000
vt 0.470485 0.286970 0.000000
vt 0.662695 0.286970 0.000000
vt 0.018966 0.827801 0.000000
vt 0.100173 0.827801 0.000000
vt 0.100173 0.977569 0.000000
vt 0.018966 0.977569 0.000000
vt 0.000000 0.998960 0.000000
vt 0.000000 0.806410 0.000000
vt 0.119138 0.806410 0.000000
vt 0.119138 0.998960 0.000000
vt 0.021151 0.535815 0.000000
vt 0.021151 0.328344 0.000000
vt 0.170970 0.328344 0.000000
vt 0.170970 0.535815 0.000000
vt 0.192121 0.559104 0.000000
vt 0.000000 0.559104 0.000000
vt 0.000000 0.305054 0.000000
vt 0.192121 0.305054 0.000000
vt 0.670659 0.741454 0.000000
vt 0.670659 0.545360 0.000000
vt 0.784280 0.545360 0.000000
vt 0.784280 0.741454 0.000000
vt 0.804198 0.764387 0.000000
vt 0.650741 0.764387 0.000000
vt 0.650741 0.522426 0.000000
vt 0.804198 0.522426 0.000000
vt 0.020587 0.590640 0.000000
vt 0.152591 0.590640 0.000000
vt 0.152591 0.774875 0.000000
vt 0.020587 0.774875 0.000000
vt 0.000000 0.797370 0.000000
vt 0.000000 0.568144 0.000000
vt 0.173177 0.568144 0.000000
vt 0.173177 0.797370 0.000000
vt 0.256203 0.953381 0.000000
vt 0.256203 0.779768 0.000000
vt 0.401704 0.779768 0.000000
vt 0.401704 0.953381 0.000000
vt 0.422773 0.975478 0.000000
vt 0.235134 0.975479 0.000000
vt 0.235134 0.757670 0.000000
vt 0.422773 0.757670 0.000000
vt 0.831449 0.701181 0.000000
vt 0.885982 0.701181 0.000000
vt 0.885982 0.801892 0.000000
vt 0.831449 0.801892 0.000000
vt 0.813238 0.821686 0.000000
vt 0.813238 0.681387 0.000000
vt 0.904192 0.681387 0.000000
vt 0.904192 0.821686 0.000000
vt 0.918821 0.851148 0.000000
vt 0.948982 0.851148 0.000000
vt 0.948982 0.969515 0.000000
vt 0.918821 0.969515 0.000000
vt 0.901413 0.989937 0.000000
vt 0.901413 0.830726 0.000000
vt 0.966390 0.830726 0.000000
vt 0.966390 0.989937 0.000000
vt 0.670355 0.795884 0.000000
vt 0.773273 0.795884 0.000000
vt 0.773273 0.977543 0.000000
vt 0.670355 0.977543 0.000000
vt 0.650741 1.000000 0.000000
vt 0.650741 0.773427 0.000000
vt 0.792886 0.773427 0.000000
vt 0.792886 1.000000 0.000000
vt 0.889382 0.308253 0.000000
vt 0.943947 0.308253 0.000000
vt 0.943947 0.453498 0.000000
vt 0.889382 0.453498 0.000000
vt 0.871265 0.474782 0.000000
vt 0.871265 0.286970 0.000000
vt 0.962064 0.286970 0.000000
vt 0.962064 0.474782 0.000000
vt 0.925036 0.021380 0.000000
vt 0.979603 0.021380 0.000000
vt 0.979603 0.169443 0.000000
vt 0.925036 0.169443 0.000000
vt 0.906924 0.190823 0.000000
vt 0.906925 0.000000 0.000000
vt 0.997714 0.000000 0.000000
vt 0.997714 0.190823 0.000000
vt 0.692931 0.462474 0.000000
vt 0.692931 0.308384 0.000000
vt 0.841029 0.308384 0.000000
vt 0.841029 0.462474 0.000000
vt 0.862225 0.483889 0.000000
vt 0.671734 0.483889 0.000000
vt 0.671734 0.286970 0.000000
vt 0.862225 0.286970 0.000000
vt 0.831092 0.954233 0.000000
vt 0.831092 0.850635 0.000000
vt 0.874519 0.850635 0.000000
vt 0.874519 0.954233 0.000000
vt 0.892373 0.974142 0.000000
vt 0.813238 0.974142 0.000000
vt 0.813238 0.830726 0.000000
vt 0.892373 0.830726 0.000000
vt 0.833082 0.652350 0.000000
vt 0.833082 0.542423 0.000000
vt 0.938732 0.542423 0.000000
vt 0.938732 0.652350 0.000000
vt 0.958576 0.672347 0.000000
vt 0.813238 0.672347 0.000000
vt 0.813238 0.522426 0.000000
vt 0.958576 0.522426 0.000000
vt 0.146401 0.939713 0.000000
vt 0.146401 0.826611 0.000000
vt 0.202134 0.826611 0.000000
vt 0.202134 0.939713 0.000000
vt 0.220357 0.959914 0.000000
vt 0.128178 0.959914 0.000000
vt 0.128178 0.806410 0.000000
vt 0.220357 0.806410 0.000000
vt 0.931017 0.699493 0.000000
vt 0.968560 0.699493 0.000000
vt 0.968560 0.746724 0.000000
vt 0.931017 0.746724 0.000000
vt 0.913232 0.764831 0.000000
vt 0.913232 0.681387 0.000000
vt 0.986345 0.681387 0.000000
vt 0.986345 0.764831 0.000000
# 192 texture coords

g Plane14
s 1
f 1/1/1 2/2/2 3/3/3 4/4/4 
f 1/1/1 4/4/4 5/5/5 6/6/6 
f 2/2/2 1/1/1 6/6/6 7/7/7 
f 3/3/3 2/2/2 7/7/7 8/8/8 
f 4/4/4 3/3/3 8/8/8 5/5/5 
f 9/9/9 10/10/10 11/11/11 12/12/12 
f 9/9/9 12/12/12 13/13/13 14/14/14 
f 10/10/10 9/9/9 14/14/14 15/15/15 
f 11/11/11 10/10/10 15/15/15 16/16/16 
f 12/12/12 11/11/11 16/16/16 13/13/13 
f 17/17/17 18/18/18 19/19/19 20/20/20 
f 17/17/17 20/20/20 21/21/21 22/22/22 
f 18/18/18 17/17/17 22/22/22 23/23/23 
f 19/19/19 18/18/18 23/23/23 24/24/24 
f 20/20/20 19/19/19 24/24/24 21/21/21 
f 25/25/25 26/26/26 27/27/27 28/28/28 
f 25/25/25 28/28/28 29/29/29 30/30/30 
f 26/26/26 25/25/25 30/30/30 31/31/31 
f 27/27/27 26/26/26 31/31/31 32/32/16 
f 28/28/28 27/27/27 32/32/16 29/29/29 
f 33/33/32 34/34/33 35/35/34 36/36/35 
f 33/33/32 36/36/35 37/37/36 38/38/37 
f 34/34/33 33/33/32 38/38/37 39/39/38 
f 35/35/34 34/34/33 39/39/38 40/40/39 
f 36/36/35 35/35/34 40/40/39 37/37/36 
f 41/41/40 42/42/41 43/43/42 44/44/43 
f 41/41/40 44/44/43 45/45/44 46/46/45 
f 42/42/41 41/41/40 46/46/45 47/47/46 
f 43/43/42 42/42/41 47/47/46 48/48/16 
f 44/44/43 43/43/42 48/48/16 45/45/44 
f 49/49/47 50/50/48 51/51/49 52/52/50 
f 49/49/47 52/52/50 53/53/51 54/54/52 
f 50/50/48 49/49/47 54/54/52 55/55/53 
f 51/51/49 50/50/48 55/55/53 56/56/54 
f 52/52/50 51/51/49 56/56/54 53/53/51 
f 57/57/55 58/58/56 59/59/57 60/60/58 
f 57/57/55 60/60/58 61/61/59 62/62/60 
f 58/58/56 57/57/55 62/62/60 63/63/61 
f 59/59/57 58/58/56 63/63/61 64/64/62 
f 60/60/58 59/59/57 64/64/62 61/61/59 
f 65/65/63 66/66/56 67/67/57 68/68/58 
f 65/65/63 68/68/58 69/69/59 70/70/60 
f 66/66/56 65/65/63 70/70/60 71/71/61 
f 67/67/57 66/66/56 71/71/61 72/72/62 
f 68/68/58 67/67/57 72/72/62 69/69/59 
f 73/73/64 74/74/65 75/75/66 76/76/67 
f 73/73/64 76/76/67 77/77/68 78/78/69 
f 74/74/65 73/73/64 78/78/69 79/79/70 
f 75/75/66 74/74/65 79/79/70 80/80/71 
f 76/76/67 75/75/66 80/80/71 77/77/68 
f 81/81/72 82/82/73 83/83/74 84/84/75 
f 81/81/72 84/84/75 85/85/76 86/86/77 
f 82/82/73 81/81/72 86/86/77 87/87/78 
f 83/83/74 82/82/73 87/87/78 88/88/79 
f 84/84/75 83/83/74 88/88/79 85/85/76 
f 89/89/80 90/90/81 91/91/82 92/92/83 
f 89/89/80 92/92/83 93/93/84 94/94/85 
f 90/90/81 89/89/80 94/94/85 95/95/86 
f 91/91/82 90/90/81 95/95/86 96/96/87 
f 92/92/83 91/91/82 96/96/87 93/93/84 
f 97/97/88 98/98/89 99/99/90 100/100/91 
f 97/97/88 100/100/91 101/101/92 102/102/93 
f 98/98/89 97/97/88 102/102/93 103/103/94 
f 99/99/90 98/98/89 103/103/94 104/104/95 
f 100/100/91 99/99/90 104/104/95 101/101/92 
f 105/105/96 106/106/97 107/107/98 108/108/99 
f 105/105/96 108/108/99 109/109/100 110/110/101 
f 106/106/97 105/105/96 110/110/101 111/111/102 
f 107/107/98 106/106/97 111/111/102 112/112/103 
f 108/108/99 107/107/98 112/112/103 109/109/100 
f 113/113/104 114/114/105 115/115/106 116/116/107 
f 113/113/104 116/116/107 117/117/108 118/118/109 
f 114/114/105 113/113/104 118/118/109 119/119/110 
f 115/115/106 114/114/105 119/119/110 120/120/111 
f 116/116/107 115/115/106 120/120/111 117/117/108 
f 121/121/112 122/122/113 123/123/114 124/124/115 
f 121/121/112 124/124/115 125/125/116 126/126/117 
f 122/122/113 121/121/112 126/126/117 127/127/118 
f 123/123/114 122/122/113 127/127/118 128/128/119 
f 124/124/115 123/123/114 128/128/119 125/125/116 
f 129/129/120 130/130/121 131/131/122 132/132/123 
f 129/129/120 132/132/123 133/133/124 134/134/125 
f 130/130/121 129/129/120 134/134/125 135/135/126 
f 131/131/122 130/130/121 135/135/126 136/136/127 
f 132/132/123 131/131/122 136/136/127 133/133/124 
f 137/137/128 138/138/129 139/139/130 140/140/131 
f 137/137/128 140/140/131 141/141/132 142/142/133 
f 138/138/129 137/137/128 142/142/133 143/143/134 
f 139/139/130 138/138/129 143/143/134 144/144/135 
f 140/140/131 139/139/130 144/144/135 141/141/132 
f 145/145/136 146/146/137 147/147/138 148/148/139 
f 145/145/136 148/148/139 149/149/140 150/150/141 
f 146/146/137 145/145/136 150/150/141 151/151/142 
f 147/147/138 146/146/137 151/151/142 152/152/143 
f 148/148/139 147/147/138 152/152/143 149/149/140 
f 153/153/144 154/154/145 155/155/146 156/156/147 
f 153/153/144 156/156/147 157/157/148 158/158/149 
f 154/154/145 153/153/144 158/158/149 159/159/150 
f 155/155/146 154/154/145 159/159/150 160/160/151 
f 156/156/147 155/155/146 160/160/151 157/157/148 
f 161/161/152 162/162/153 163/163/154 164/164/155 
f 161/161/152 164/164/155 165/165/156 166/166/157 
f 162/162/153 161/161/152 166/166/157 167/167/158 
f 163/163/154 162/162/153 167/167/158 168/168/159 
f 164/164/155 163/163/154 168/168/159 165/165/156 
f 169/169/160 170/170/161 171/171/162 172/172/163 
f 169/169/160 172/172/163 173/173/164 174/174/165 
f 170/170/161 169/169/160 174/174/165 175/175/166 
f 171/171/162 170/170/161 175/175/166 176/176/167 
f 172/172/163 171/171/162 176/176/167 173/173/164 
f 177/177/168 178/178/169 179/179/170 180/180/171 
f 177/177/168 180/180/171 181/181/172 182/182/173 
f 178/178/169 177/177/168 182/182/173 183/183/174 
f 179/179/170 178/178/169 183/183/174 184/184/175 
f 180/180/171 179/179/170 184/184/175 181/181/172 
f 185/185/176 186/186/177 187/187/178 188/188/179 
f 185/185/176 188/188/179 189/189/180 190/190/181 
f 186/186/177 185/185/176 190/190/181 191/191/182 
f 187/187/178 186/186/177 191/191/182 192/192/183 
f 188/188/179 187/187/178 192/192/183 189/189/180 
# 120 polygons

